<svg width="18" height="18" viewBox="0 0 18 18" fill="none" xmlns="http://www.w3.org/2000/svg">
    <path
        d="M17.4712 14.8346C18.1744 15.5207 18.1744 16.632 17.4712 17.3181C17.1225 17.6611 16.6612 17.8312 16.2 17.8312C15.7387 17.8312 15.2786 17.6597 14.9276 17.3167L9 11.5362L3.07294 17.3153C2.72137 17.6611 2.26069 17.8312 1.8 17.8312C1.33931 17.8312 0.879187 17.6611 0.527344 17.3153C-0.175781 16.6293 -0.175781 15.5179 0.527344 14.8319L6.45609 9.04724L0.527344 3.26534C-0.175781 2.5793 -0.175781 1.46793 0.527344 0.781891C1.23047 0.0958558 2.36953 0.0958558 3.07266 0.781891L9 6.56928L14.9287 0.784635C15.6319 0.0986001 16.7709 0.0986001 17.4741 0.784635C18.1772 1.47067 18.1772 2.58205 17.4741 3.26808L11.5453 9.05273L17.4712 14.8346Z"
        fill="#F1F5F9" />
</svg>