<svg width="30" height="16" viewBox="0 0 30 16" fill="none" xmlns="http://www.w3.org/2000/svg">
    <path
        d="M0 8C0 3.85625 3.35766 0.5 7.5 0.5H12.375C12.9984 0.5 13.5 1.00156 13.5 1.625C13.5 2.24844 12.9984 2.75 12.375 2.75H7.5C4.60031 2.75 2.25 5.09844 2.25 8C2.25 10.9016 4.60031 13.25 7.5 13.25H12.375C12.9984 13.25 13.5 13.7516 13.5 14.375C13.5 14.9984 12.9984 15.5 12.375 15.5H7.5C3.35766 15.5 0 12.1438 0 8ZM22.5 15.5H17.625C17.0016 15.5 16.5 14.9984 16.5 14.375C16.5 13.7516 17.0016 13.25 17.625 13.25H22.5C25.4016 13.25 27.75 10.9016 27.75 8C27.75 5.09844 25.4016 2.75 22.5 2.75H17.625C17.0016 2.75 16.5 2.24844 16.5 1.625C16.5 1.00156 17.0016 0.5 17.625 0.5H22.5C26.6437 0.5 30 3.85625 30 8C30 12.1438 26.6437 15.5 22.5 15.5ZM19.875 6.875C20.4984 6.875 21 7.37656 21 8C21 8.62344 20.4984 9.125 19.875 9.125H10.125C9.50156 9.125 9 8.62344 9 8C9 7.37656 9.50156 6.875 10.125 6.875H19.875Z"
        fill="#64748B" />
</svg>