<svg width="27" height="22" viewBox="0 0 27 22" fill="none" xmlns="http://www.w3.org/2000/svg">
    <path
        d="M19.5 11C19.5 14.3141 16.8141 17 13.5 17C10.1859 17 7.5 14.3141 7.5 11C7.5 7.68594 10.1859 5 13.5 5C16.8141 5 19.5 7.68594 19.5 11ZM13.5 6.5C10.9734 6.5 9 8.47344 9 11C9 13.4844 10.9734 15.5 13.5 15.5C15.9844 15.5 18 13.4844 18 11C18 8.47344 15.9844 6.5 13.5 6.5ZM22.5281 4.27812C24.7219 6.3125 26.1891 8.70781 26.8828 10.4234C27.0375 10.7937 27.0375 11.2062 26.8828 11.5766C26.1891 13.25 24.7219 15.6453 22.5281 17.7219C20.3203 19.775 17.2875 21.5 13.5 21.5C9.7125 21.5 6.67969 19.775 4.47282 17.7219C2.27907 15.6453 0.812818 13.25 0.115365 11.5766C-0.0384551 11.2062 -0.0384551 10.7937 0.115365 10.4234C0.812818 8.70781 2.27907 6.3125 4.47282 4.27812C6.67969 2.22688 9.7125 0.5 13.5 0.5C17.2875 0.5 20.3203 2.22688 22.5281 4.27812ZM1.50001 11C2.12485 12.5 3.47485 14.75 5.49375 16.625C7.51407 18.5 10.2 20 13.5 20C16.8 20 19.4859 18.5 21.5063 16.625C23.5266 14.75 24.8766 12.5 25.5 11C24.8766 9.45781 23.5266 7.20781 21.5063 5.375C19.4859 3.49953 16.8 2 13.5 2C10.2 2 7.51407 3.49953 5.49375 5.375C3.47485 7.20781 2.12485 9.45781 1.50001 11Z"
        fill="#CBD5E1" />
</svg>