<svg width="18" height="18" viewBox="0 0 18 15" fill="none" xmlns="http://www.w3.org/2000/svg">
    <path
        d="M2.68207 4.42109C2.58082 4.54414 2.43352 4.61797 2.27531 4.59336C2.11746 4.63203 1.96383 4.57227 1.85238 4.45977L0.164742 2.77227C-0.0549141 2.5543 -0.0549141 2.19711 0.164742 1.97738C0.384258 1.75766 0.740391 1.75766 0.960117 1.97738L2.21203 3.2293L4.63008 0.327501C4.83047 0.0887898 5.18555 0.0564461 5.42109 0.25543C5.66016 0.454415 5.6918 0.80879 5.49492 1.0475L2.68207 4.42109ZM2.68207 10.0461C2.58082 10.1691 2.43352 10.243 2.27531 10.2184C2.11746 10.257 1.96383 10.1973 1.85238 10.0848L0.164742 8.39727C-0.0549141 8.1793 -0.0549141 7.8207 0.164742 7.60274C0.384258 7.38125 0.740391 7.38125 0.960117 7.60274L2.21203 8.8543L4.63008 5.95391C4.83047 5.6832 5.18555 5.6832 5.42109 5.88008C5.66016 6.08047 5.6918 6.43555 5.49492 6.67109L2.68207 10.0461ZM6.71836 2.375C6.71836 2.06422 7.00313 1.8125 7.28086 1.8125H17.4375C17.7469 1.8125 18 2.06422 18 2.375C18 2.68438 17.7469 2.9375 17.4375 2.9375H7.28086C7.00313 2.9375 6.71836 2.68438 6.71836 2.375ZM6.71836 8C6.71836 7.69063 7.00313 7.4375 7.28086 7.4375H17.4375C17.7469 7.4375 18 7.69063 18 8C18 8.30938 17.7469 8.5625 17.4375 8.5625H7.28086C7.00313 8.5625 6.71836 8.30938 6.71836 8ZM5.59336 13.625C5.59336 13.3156 5.87813 13.0625 6.15586 13.0625H17.4375C17.7469 13.0625 18 13.3156 18 13.625C18 13.9344 17.7469 14.1875 17.4375 14.1875H6.15586C5.87813 14.1875 5.59336 13.9344 5.59336 13.625ZM2.21836 14.75C1.62879 14.75 1.09336 14.2473 1.09336 13.625C1.09336 13.0027 1.62879 12.5 2.21836 12.5C2.87121 12.5 3.34336 13.0027 3.34336 13.625C3.34336 14.2473 2.87121 14.75 2.21836 14.75Z"
        fill="#64748B" />
</svg>