<svg width="16" height="16" viewBox="0 0 16 16" fill="none" xmlns="http://www.w3.org/2000/svg">
    <path
        d="M15.1875 8.00001C15.1875 8.46759 14.8113 8.84377 14.3438 8.84377H8.71875V14.4688C8.71875 14.9346 8.34082 15.3129 7.875 15.3129C7.40918 15.3129 7.03125 14.9363 7.03125 14.4688V8.84377H1.40625C0.94043 8.84377 0.5625 8.46619 0.5625 8.00037C0.5625 7.53595 0.94043 7.15626 1.40625 7.15626H7.03125V1.53126C7.03125 1.06544 7.40918 0.687866 7.875 0.687866C8.34082 0.687866 8.71875 1.06544 8.71875 1.53126V7.15626H14.3438C14.8113 7.15626 15.1875 7.53595 15.1875 8.00001Z"
        fill="white" />
</svg>