<svg width="23" height="20" viewBox="0 0 23 20" fill="none" xmlns="http://www.w3.org/2000/svg">
    <path
        d="M4.375 0C4.71875 0 5 0.279844 5 0.625V2.5H12.5V0.625C12.5 0.279844 12.7812 0 13.125 0C13.4688 0 13.75 0.279844 13.75 0.625V2.5H15C16.3789 2.5 17.5 3.61914 17.5 5V7.52734C17.293 7.50781 17.0859 7.5 16.875 7.5C16.6641 7.5 16.457 7.50781 16.25 7.52734V7.5H1.25V17.5C1.25 18.1914 1.80977 18.75 2.5 18.75H11.5703C11.9648 19.2227 12.418 19.6445 12.9219 20H2.5C1.11914 20 0 18.8789 0 17.5V5C0 3.61914 1.11914 2.5 2.5 2.5H3.75V0.625C3.75 0.279844 4.03125 0 4.375 0ZM15 3.75H2.5C1.80977 3.75 1.25 4.30859 1.25 5V6.25H16.25V5C16.25 4.30859 15.6914 3.75 15 3.75ZM16.8398 11.25C17.2188 11.25 17.4648 11.5312 17.4648 11.875V13.75H18.75C19.0938 13.75 19.375 14.0312 19.375 14.375C19.375 14.7188 19.0938 15 18.75 15H16.8398C16.5312 15 16.2148 14.7188 16.2148 14.375V11.875C16.2148 11.5312 16.5312 11.25 16.8398 11.25ZM11.25 14.375C11.25 11.2695 13.7695 8.75 16.875 8.75C19.9805 8.75 22.5 11.2695 22.5 14.375C22.5 17.4805 19.9805 20 16.875 20C13.7695 20 11.25 17.4805 11.25 14.375ZM16.875 18.75C19.293 18.75 21.25 16.793 21.25 14.375C21.25 11.957 19.293 10 16.875 10C14.457 10 12.5 11.957 12.5 14.375C12.5 16.793 14.457 18.75 16.875 18.75Z"
        fill="#64748B" />
</svg>