<svg width="30" height="24" viewBox="0 0 30 24" fill="none" xmlns="http://www.w3.org/2000/svg">
    <path
        d="M29.7141 22.6594C30.0422 22.9172 30.0937 23.3484 29.8406 23.7141C29.5828 24.0422 29.1094 24.0937 28.7859 23.8406L0.285278 1.33875C-0.0398139 1.08187 -0.0952998 0.61031 0.161388 0.285278C0.418028 -0.0398139 0.889685 -0.0952998 1.21453 0.161388L29.7141 22.6594ZM28.3828 12.5766C27.9047 13.7297 27.0562 15.2484 25.8562 16.7484L24.6797 15.8203C25.7859 14.3953 26.5687 13.0359 27 12C26.3766 10.4578 25.0266 8.20781 23.0062 6.375C20.9859 4.49953 18.3 3 15 3C13.1344 3 11.4656 3.47859 10.0031 4.23328L8.72343 3.22406C10.5 2.19375 12.6 1.45781 15 1.45781C18.7875 1.45781 21.8203 3.22687 24.0281 5.27812C26.2219 7.3125 27.6891 9.70781 28.3828 11.4234C28.5375 11.7937 28.5375 12.2062 28.3828 12.5766ZM4.14328 7.25156L5.32031 8.17968C4.21218 9.5625 3.43265 10.9641 2.95781 11.9578C3.62484 13.5 4.97343 15.75 6.99375 17.625C9.01406 19.5 11.7 21 14.9578 21C16.8656 21 18.5344 20.5219 19.9969 19.7672L21.2766 20.775C19.4578 21.8062 17.4 22.5 14.9578 22.5C11.2125 22.5 8.17968 20.775 5.97187 18.7219C3.77906 16.6453 2.31281 14.25 1.61531 12.5766C1.46156 12.2062 1.46156 11.7937 1.61531 11.4234C2.09672 10.2703 2.94375 8.75156 4.14328 7.25156ZM8.95781 11.9578C8.95781 11.7047 9.02343 11.4187 9.06094 11.1328L10.5094 12.2766C10.65 14.6344 12.5672 16.5 14.9578 16.5C15.2625 16.5 15.525 16.4766 15.7734 16.4344L17.2219 17.5734C16.5328 17.85 15.7828 18 14.9578 18C11.6859 18 8.95781 15.3141 8.95781 11.9578ZM21 11.9578C21 12.2953 20.9766 12.5812 20.9391 12.8672L19.4906 11.7234C19.35 9.36562 17.3906 7.45781 14.9578 7.45781C14.7375 7.45781 14.475 7.52343 14.2266 7.56562L12.7781 6.42656C13.4672 6.15 14.2172 5.95781 14.9578 5.95781C18.3141 5.95781 21 8.68594 21 11.9578Z"
        fill="#CBD5E1" />
</svg>